<mxfile host="65bd71144e">
    <diagram id="HIP3nbAZw_EuaXWnEj3U" name="Page-1">
        <mxGraphModel dx="696" dy="583" grid="1" gridSize="10" guides="1" tooltips="1" connect="1" arrows="1" fold="1" page="1" pageScale="1" pageWidth="850" pageHeight="1100" math="0" shadow="0">
            <root>
                <mxCell id="0"/>
                <mxCell id="1" parent="0"/>
                <mxCell id="7" value="http://ics2o.mths.ca" style="swimlane;whiteSpace=wrap;html=1;fillColor=none;fontColor=#ffffff;strokeColor=#006EAF;" parent="1" vertex="1">
                    <mxGeometry x="50" y="70" width="760" height="480" as="geometry">
                        <mxRectangle x="40" y="40" width="150" height="30" as="alternateBounds"/>
                    </mxGeometry>
                </mxCell>
                <mxCell id="11" value="&lt;h1&gt;&lt;font color=&quot;#73eaf2&quot;&gt;Volume of&amp;nbsp; pyramid, with JS&lt;/font&gt;&lt;/h1&gt;&lt;div style=&quot;font-size: 14px;&quot;&gt;&lt;font style=&quot;font-size: 14px;&quot; color=&quot;#2ac048&quot;&gt;Formulas&lt;/font&gt;&lt;/div&gt;&lt;div style=&quot;font-size: 14px;&quot;&gt;&lt;font style=&quot;font-size: 14px;&quot; color=&quot;#2ac048&quot;&gt;&lt;br&gt;&lt;/font&gt;&lt;/div&gt;&lt;div style=&quot;font-size: 14px;&quot;&gt;&lt;font style=&quot;font-size: 14px;&quot;&gt;&lt;font color=&quot;#050505&quot;&gt;V =&amp;nbsp;&lt;span style=&quot;white-space: pre;&quot;&gt;&#9;&lt;/span&gt;(L x W x H) / 3&lt;/font&gt;&lt;/font&gt;&lt;/div&gt;&lt;div style=&quot;font-size: 14px;&quot;&gt;&lt;font style=&quot;font-size: 14px;&quot; color=&quot;#2ac048&quot;&gt;&lt;span style=&quot;white-space: pre;&quot;&gt;&lt;font style=&quot;font-size: 14px;&quot;&gt;&#9;&lt;/font&gt;&lt;/span&gt;&lt;br&gt;&lt;/font&gt;&lt;/div&gt;" style="text;html=1;strokeColor=none;fillColor=none;spacing=5;spacingTop=-20;whiteSpace=wrap;overflow=hidden;rounded=0;" vertex="1" parent="7">
                    <mxGeometry x="20" y="40" width="390" height="120" as="geometry"/>
                </mxCell>
                <mxCell id="13" value="&lt;font style=&quot;&quot; color=&quot;#f6f4f4&quot;&gt;please enter the integer for dimension&lt;/font&gt;" style="text;html=1;strokeColor=none;fillColor=none;align=center;verticalAlign=middle;whiteSpace=wrap;rounded=0;labelBackgroundColor=none;fontSize=14;fontColor=#050505;" vertex="1" parent="7">
                    <mxGeometry x="20" y="170" width="250" height="30" as="geometry"/>
                </mxCell>
                <mxCell id="15" value="" style="rounded=1;whiteSpace=wrap;html=1;labelBackgroundColor=#000000;fontSize=14;fontColor=#f6f4f4;fillColor=none;" vertex="1" parent="7">
                    <mxGeometry x="80" y="230" width="80" height="20" as="geometry"/>
                </mxCell>
                <mxCell id="19" value="length :&amp;nbsp;" style="text;html=1;strokeColor=none;fillColor=none;align=center;verticalAlign=middle;whiteSpace=wrap;rounded=0;labelBackgroundColor=none;fontSize=14;fontColor=#f6f4f4;fillStyle=auto;gradientColor=none;glass=0;labelBorderColor=none;" vertex="1" parent="7">
                    <mxGeometry x="20" y="225" width="60" height="30" as="geometry"/>
                </mxCell>
                <mxCell id="28" value="caculate" style="rounded=1;whiteSpace=wrap;html=1;glass=0;labelBackgroundColor=none;labelBorderColor=none;fillStyle=auto;fontSize=14;fontColor=#f6f4f4;fillColor=none;gradientColor=none;" vertex="1" parent="7">
                    <mxGeometry x="27" y="332" width="90" height="20" as="geometry"/>
                </mxCell>
                <mxCell id="29" value="Answer" style="text;html=1;strokeColor=none;fillColor=none;align=center;verticalAlign=middle;whiteSpace=wrap;rounded=0;glass=0;labelBackgroundColor=none;labelBorderColor=default;fillStyle=auto;fontSize=14;fontColor=#f6f4f4;" vertex="1" parent="7">
                    <mxGeometry x="17" y="389" width="133" height="20" as="geometry"/>
                </mxCell>
                <mxCell id="36" value="l" style="text;html=1;strokeColor=none;fillColor=none;align=center;verticalAlign=middle;whiteSpace=wrap;rounded=0;glass=0;labelBackgroundColor=none;labelBorderColor=none;fillStyle=auto;fontSize=20;fontColor=#f6f4f4;fontFamily=Lucida Console;" vertex="1" parent="7">
                    <mxGeometry x="480" y="379" width="60" height="30" as="geometry"/>
                </mxCell>
                <mxCell id="21" value="" style="rounded=1;whiteSpace=wrap;html=1;labelBackgroundColor=#000000;fontSize=14;fontColor=#f6f4f4;fillColor=none;" vertex="1" parent="1">
                    <mxGeometry x="130" y="333" width="80" height="20" as="geometry"/>
                </mxCell>
                <mxCell id="22" value="width :&amp;nbsp;" style="text;html=1;strokeColor=none;fillColor=none;align=center;verticalAlign=middle;whiteSpace=wrap;rounded=0;labelBackgroundColor=none;fontSize=14;fontColor=#f6f4f4;fillStyle=auto;gradientColor=none;glass=0;labelBorderColor=none;" vertex="1" parent="1">
                    <mxGeometry x="70" y="328" width="60" height="30" as="geometry"/>
                </mxCell>
                <mxCell id="23" value="" style="rounded=1;whiteSpace=wrap;html=1;labelBackgroundColor=#000000;fontSize=14;fontColor=#f6f4f4;fillColor=none;" vertex="1" parent="1">
                    <mxGeometry x="130" y="364" width="80" height="20" as="geometry"/>
                </mxCell>
                <mxCell id="24" value="height :" style="text;html=1;strokeColor=none;fillColor=none;align=center;verticalAlign=middle;whiteSpace=wrap;rounded=0;labelBackgroundColor=none;fontSize=14;fontColor=#f6f4f4;fillStyle=auto;gradientColor=none;glass=0;labelBorderColor=none;" vertex="1" parent="1">
                    <mxGeometry x="70" y="359" width="60" height="30" as="geometry"/>
                </mxCell>
                <mxCell id="25" value="mm" style="text;html=1;strokeColor=none;fillColor=none;align=center;verticalAlign=middle;whiteSpace=wrap;rounded=0;labelBackgroundColor=none;fontSize=14;fontColor=#f6f4f4;fillStyle=auto;gradientColor=none;glass=0;labelBorderColor=none;" vertex="1" parent="1">
                    <mxGeometry x="213" y="302" width="28" height="15" as="geometry"/>
                </mxCell>
                <mxCell id="26" value="mm" style="text;html=1;strokeColor=none;fillColor=none;align=center;verticalAlign=middle;whiteSpace=wrap;rounded=0;labelBackgroundColor=none;fontSize=14;fontColor=#f6f4f4;fillStyle=auto;gradientColor=none;glass=0;labelBorderColor=none;" vertex="1" parent="1">
                    <mxGeometry x="213" y="335" width="28" height="15" as="geometry"/>
                </mxCell>
                <mxCell id="27" value="mm" style="text;html=1;strokeColor=none;fillColor=none;align=center;verticalAlign=middle;whiteSpace=wrap;rounded=0;labelBackgroundColor=none;fontSize=14;fontColor=#f6f4f4;fillStyle=auto;gradientColor=none;glass=0;labelBorderColor=none;" vertex="1" parent="1">
                    <mxGeometry x="213" y="366" width="28" height="15" as="geometry"/>
                </mxCell>
                <mxCell id="30" value="" style="endArrow=none;html=1;fontSize=14;fontColor=#f6f4f4;" edge="1" parent="1">
                    <mxGeometry width="50" height="50" relative="1" as="geometry">
                        <mxPoint x="460" y="430" as="sourcePoint"/>
                        <mxPoint x="600" y="210" as="targetPoint"/>
                    </mxGeometry>
                </mxCell>
                <mxCell id="32" value="" style="endArrow=none;html=1;fontSize=14;fontColor=#f6f4f4;" edge="1" parent="1">
                    <mxGeometry width="50" height="50" relative="1" as="geometry">
                        <mxPoint x="460" y="430" as="sourcePoint"/>
                        <mxPoint x="690" y="460" as="targetPoint"/>
                    </mxGeometry>
                </mxCell>
                <mxCell id="33" value="" style="endArrow=none;html=1;fontSize=14;fontColor=#f6f4f4;" edge="1" parent="1">
                    <mxGeometry width="50" height="50" relative="1" as="geometry">
                        <mxPoint x="690" y="460" as="sourcePoint"/>
                        <mxPoint x="600" y="210" as="targetPoint"/>
                    </mxGeometry>
                </mxCell>
                <mxCell id="34" value="" style="endArrow=none;html=1;fontSize=14;fontColor=#f6f4f4;" edge="1" parent="1">
                    <mxGeometry width="50" height="50" relative="1" as="geometry">
                        <mxPoint x="690" y="460" as="sourcePoint"/>
                        <mxPoint x="770" y="360" as="targetPoint"/>
                    </mxGeometry>
                </mxCell>
                <mxCell id="35" value="" style="endArrow=none;html=1;fontSize=14;fontColor=#f6f4f4;" edge="1" parent="1">
                    <mxGeometry width="50" height="50" relative="1" as="geometry">
                        <mxPoint x="770" y="360" as="sourcePoint"/>
                        <mxPoint x="600" y="210" as="targetPoint"/>
                    </mxGeometry>
                </mxCell>
            </root>
        </mxGraphModel>
    </diagram>
</mxfile>